<svg width="132" height="36" viewBox="0 0 132 36" fill="none" xmlns="http://www.w3.org/2000/svg">
<path d="M12.9375 27.3789L14.8008 27.2031L15.4336 27.3438C16.3945 27.0859 17.2617 26.5352 18.0352 25.6914C18.5273 24.707 18.7734 23.6875 18.7734 22.6328C18.6094 21.5312 18.1992 20.5703 17.543 19.75L16.7695 19.6094V19.2227C15.3398 19.0352 14.0625 18.9531 12.9375 18.9766L11.707 19.8203L11.1797 21.1562L10.7578 21.2969L10.3008 21.1562L9.80859 19.9258L10.1953 18.2734L10.0547 17.4648L10.4414 16.5859L10.1953 15.6719L10.4414 13.5977L10.3008 13.2109L10.4414 12.4375L9.84375 11.4883L7.48828 11.1016L6.96094 11.2422L6.46875 10.9609L5.02734 11.2422L3.44531 10.7148L2.8125 10.8555L2.07422 10.293V9.41406H2.56641C3.87891 10 5.34375 10.2578 6.96094 10.1875L10.0547 9.94141L10.1953 9.09766L9.35156 5.65234H10.0547L10.7227 6.35547L11.1797 9.80078C12.8672 9.63672 14.3203 9.55469 15.5391 9.55469L15.9258 9.66016C17.7773 9.35547 19.7695 9.20312 21.9023 9.20312L22.6406 9.90625L21.5859 10.082L20.6016 9.94141L20.2148 10.082L19.7227 9.94141L18.8438 10.4688L18.457 10.3281L14.3086 10.7148L13.7812 10.4688C13.0781 10.8203 12.3398 11.0781 11.5664 11.2422L10.9688 12.332C11.0156 14.3477 11.1797 16.2109 11.4609 17.9219H11.918L13.5352 17.5352C15.5273 17.5352 17.2266 18.2734 18.6328 19.75L19.3359 21.1211L18.9844 21.2617L19.5469 21.7188L19.793 23.0195C19.7227 24.1445 19.5 25.1992 19.125 26.1836L18.2461 26.3242L17.8594 27.2383L17.5078 27.3438L17.1211 27.5898L16.875 28.1172L16.207 28.2578L15.8203 28.1172L15.3281 28.3984C14.7656 28.1172 13.9688 27.7773 12.9375 27.3789ZM17.0859 27.0273L16.9453 27.5195L17.0156 27.4844L17.4375 27.3789L17.0859 27.0273ZM30.0586 25.5508L30.6211 25.4102L31.0781 25.5508C32.6953 25.0117 33.9492 23.9922 34.8398 22.4922C35.2383 21.8828 35.4023 21.1562 35.332 20.3125C35.0742 19.2109 34.5352 18.2383 33.7148 17.3945C32.4023 16.3867 30.8203 15.918 28.9688 15.9883L27.1758 16.375L26.6836 15.1094C27.4102 14.7812 28.1602 14.6172 28.9336 14.6172C29.1445 14.6172 29.4375 14.6406 29.8125 14.6875C31.4766 14.9219 32.9297 15.543 34.1719 16.5508L35.5781 18.2383C35.9531 19.0586 36.3047 20.1367 36.6328 21.4727C36.2109 22.6211 35.6133 23.6641 34.8398 24.6016L34.1367 25.1641L33.7852 24.9531L33.6797 25.6914H32.8711L32.4141 25.7969V26.1484L31.6406 26.5703L30.0586 26.043V25.5508ZM51.6445 27.3789L53.5078 27.2031L54.1406 27.3438C55.1016 27.0859 55.9688 26.5352 56.7422 25.6914C57.2344 24.707 57.4805 23.6875 57.4805 22.6328C57.3164 21.5312 56.9062 20.5703 56.25 19.75L55.4766 19.6094V19.2227C54.0469 19.0352 52.7695 18.9531 51.6445 18.9766L50.4141 19.8203L49.8867 21.1562L49.4648 21.2969L49.0078 21.1562L48.5156 19.9258L48.9023 18.2734L48.7617 17.4648L49.1484 16.5859L48.9023 15.6719L49.1484 13.5977L49.0078 13.2109L49.1484 12.4375L48.5508 11.4883L46.1953 11.1016L45.668 11.2422L45.1758 10.9609L43.7344 11.2422L42.1523 10.7148L41.5195 10.8555L40.7812 10.293V9.41406H41.2734C42.5859 10 44.0508 10.2578 45.668 10.1875L48.7617 9.94141L48.9023 9.09766L48.0586 5.65234H48.7617L49.4297 6.35547L49.8867 9.80078C51.5742 9.63672 53.0273 9.55469 54.2461 9.55469L54.6328 9.66016C56.4844 9.35547 58.4766 9.20312 60.6094 9.20312L61.3477 9.90625L60.293 10.082L59.3086 9.94141L58.9219 10.082L58.4297 9.94141L57.5508 10.4688L57.1641 10.3281L53.0156 10.7148L52.4883 10.4688C51.7852 10.8203 51.0469 11.0781 50.2734 11.2422L49.6758 12.332C49.7227 14.3477 49.8867 16.2109 50.168 17.9219H50.625L52.2422 17.5352C54.2344 17.5352 55.9336 18.2734 57.3398 19.75L58.043 21.1211L57.6914 21.2617L58.2539 21.7188L58.5 23.0195C58.4297 24.1445 58.207 25.1992 57.832 26.1836L56.9531 26.3242L56.5664 27.2383L56.2148 27.3438L55.8281 27.5898L55.582 28.1172L54.9141 28.2578L54.5273 28.1172L54.0352 28.3984C53.4727 28.1172 52.6758 27.7773 51.6445 27.3789ZM55.793 27.0273L55.6523 27.5195L55.7227 27.4844L56.1445 27.3789L55.793 27.0273ZM70.0664 23.4414C71.6602 23.4414 72.8438 23.4648 73.6172 23.5117C75.5625 23.4414 77.4141 23.1953 79.1719 22.7734L79.2773 19.4688L78.75 17.1133C78.1875 16.9023 77.5898 16.7969 76.957 16.7969L76.3242 16.8672L75.5156 17.1133C73.2891 16.832 71.1328 16.6914 69.0469 16.6914L67.4648 16.7266L66.6562 16.8672L65.8477 16.3047V15.8477C66.5039 15.6367 67.125 15.5312 67.7109 15.5312L68.3086 15.5664C71.8711 15.6367 74.9062 15.7656 77.4141 15.9531L77.8359 15.8125L78.3281 15.9531L78.75 15.707L78.9961 13.8438L78.75 12.0156L78.8906 11.6289L78.5039 10.0117L77.4141 9.51953L76.5703 9.66016L76.043 9.51953L75.4102 9.66016L74.6719 9.51953C72.8672 9.87109 71.0391 10.082 69.1875 10.1523L68.7305 10.0469L68.3086 10.1523L67.1836 9.90625L66.0586 10.1523C65.5664 9.96484 65.3555 9.57812 65.4258 8.99219C66.1758 8.94531 67.2539 8.92188 68.6602 8.92188C70.0195 8.92188 71.0508 8.94531 71.7539 8.99219C73.1836 8.66406 74.707 8.53516 76.3242 8.60547C77.5898 8.60547 78.7734 8.78125 79.875 9.13281L80.2969 9.83594L80.0508 10.6094L80.1562 11.3828L80.0508 11.7695L80.4023 13.0703C80.2383 14.2891 80.1211 15.6484 80.0508 17.1484L80.4023 17.3945V18.0977C80.0977 18.3555 79.9805 18.6719 80.0508 19.0469L80.4023 19.4336L80.2969 19.9961L80.543 21.0156L80.2969 21.7891L80.543 23.2656C80.0977 23.4766 79.7695 23.6172 79.5586 23.6875C78.9258 23.9688 78.4102 24.1797 78.0117 24.3203V23.793H76.6406L76.5352 24.1797L75.4102 24.5664L74.6719 24.2852L74.25 24.4258L73.6172 24.2852L73.2656 24.4258L72.7734 24.2148C72.5625 24.4961 72.2578 24.6367 71.8594 24.6367C71.7656 24.6367 71.5898 24.6133 71.332 24.5664L68.5547 24.2852L67.0078 24.5664L66.4102 23.5117C67.2773 23.4648 68.4961 23.4414 70.0664 23.4414ZM84.8672 17.9922L84.7266 17.3945C85.1016 17.0195 85.5938 16.832 86.2031 16.832C89.8828 16.5039 93.7266 16.3398 97.7344 16.3398C99.6328 16.3398 101.543 16.375 103.465 16.4453L103.605 17.3594L102.902 17.2539L102.762 17.6406C100.98 17.8516 99.2227 17.957 97.4883 17.957C95.7305 17.957 93.9609 17.8516 92.1797 17.6406C91.1719 17.875 90.1055 18.0156 88.9805 18.0625C87.8789 18.1094 86.7773 18.2266 85.6758 18.4141L84.8672 17.9922ZM126.141 5.08984V4.45703L126.949 4.31641C127.676 4.85547 128.203 5.51172 128.531 6.28516L129.234 8.28906L128.074 8.57031C127.91 7.16406 127.266 6.00391 126.141 5.08984ZM123.328 5.37109H123.961C124.805 6.12109 125.449 7.02344 125.895 8.07812L126.176 9.34375L125.262 9.48438C124.441 7.9375 123.797 6.56641 123.328 5.37109ZM113.098 20.6289L114.609 15.8125L114.504 15.1797L114.609 14.4414L114.188 14.1953L113.379 14.3359C111.949 14.2188 110.18 13.9609 108.07 13.5625L107.719 12.6484L108.598 12.543C110.684 12.8711 112.734 13.0352 114.75 13.0352C114.914 12.5898 114.996 12.0273 114.996 11.3477C114.996 11.0195 114.984 10.75 114.961 10.5391L114.855 9.37891L115.277 9.20312L115.91 9.44922C116.379 10.668 116.578 11.8633 116.508 13.0352C118.102 13.3867 119.719 13.5625 121.359 13.5625L126.105 13.1758L127.582 13.7383L127.688 14.4062C127.219 16.6328 126.668 18.6953 126.035 20.5938C125.543 21.0859 125.32 21.7656 125.367 22.6328C124.992 23.2188 124.711 23.8633 124.523 24.5664L123.961 24.8477C123.727 25.1523 123.352 25.3047 122.836 25.3047C122.742 25.3047 122.496 25.2695 122.098 25.1992C122.941 24.6367 123.562 23.9219 123.961 23.0547C124.57 21.8125 124.98 20.4883 125.191 19.082C125.355 17.7227 125.672 16.3281 126.141 14.8984L125.93 14.4766L124.699 14.1953L124.031 14.3359L123.68 14.1953L123.047 14.3359L122.66 14.1953L121.535 14.4766L120.867 14.3359L119.602 14.582L119.004 14.3359L117.598 14.1953L117.211 14.3359L116.578 14.1953L114.645 20.1367C113.941 22.1523 112.992 24.0625 111.797 25.8672L111.375 26.0078L110.953 25.2695C111.844 23.7461 112.559 22.1992 113.098 20.6289Z" fill="black"/>
</svg>
