<svg width="64" height="46" viewBox="0 0 64 46" fill="none" xmlns="http://www.w3.org/2000/svg">
<path d="M2.83472 2C4.39617 2.03549 5.9833 2.16666 7.54292 2.16666C9.09374 2.16666 10.6687 2.17641 12.2002 2.41203C12.9967 2.53457 13.8597 2.3639 14.6631 2.42128C15.4499 2.47748 16.2511 2.44166 17.038 2.50462C19.1394 2.67273 21.2777 2.83331 23.3851 2.83331C28.757 2.83331 34.1109 2.99997 39.4819 2.99997C44.9993 2.99997 50.5203 3.26828 55.9999 2.58332" stroke="black" stroke-width="3" stroke-linecap="round"/>
<path d="M2.33484 17.6663C3.94044 17.471 5.48512 16.9163 7.10323 16.9163C8.05053 16.9163 8.98021 16.7496 9.9226 16.7496C10.9797 16.7496 12.0367 16.7496 13.0938 16.7496C15.9055 16.7496 18.7171 16.7496 21.5288 16.7496C22.2917 16.7496 23.0304 16.833 23.788 16.833C24.1577 16.833 24.4995 16.8303 24.862 16.8978C25.2736 16.9744 25.7206 16.8309 26.1259 16.9209C26.6279 17.0325 27.1516 17.001 27.6675 17.0413C28.5481 17.1101 29.4129 17.2496 30.297 17.2496C31.4716 17.2496 32.625 17.3596 33.797 17.4117C36.0774 17.513 38.3681 17.3957 40.6486 17.5181C44.1974 17.7087 47.7381 17.5829 51.2919 17.5829C51.8885 17.5829 52.4746 17.4996 53.065 17.4996C53.2575 17.4996 54.2357 17.6118 54.3334 17.4163" stroke="black" stroke-width="3" stroke-linecap="round"/>
<path d="M0.869141 37V29.2754H2.44141L3.79883 32.8691C3.89648 33.1361 4.02018 33.5007 4.16992 33.9629C4.31966 34.4186 4.41732 34.7148 4.46289 34.8516H4.50195C4.82747 33.9076 5.05859 33.2467 5.19531 32.8691L6.52344 29.2754H8.11523V37H6.8457V33.4941C6.8457 32.9082 6.89128 32.1139 6.98242 31.1113H6.94336L6.38672 32.752L4.9707 36.5605H4.01367L2.61719 32.752L2.04102 31.1016H1.99219C2.09635 32.0391 2.14844 32.8366 2.14844 33.4941V37H0.869141ZM17.8438 37V29.2754H22.9121V30.3789H19.1328V32.4688H22.541V33.5527H19.1328V35.9062H23.0098V37H17.8438ZM32.1816 37V29.2754H33.5293L35.8633 33.5234L36.7227 35.0859H36.7715C36.6738 34.4023 36.625 33.6602 36.625 32.8594V29.2754H37.9141V37H36.5664L34.2324 32.8301L33.373 31.2188H33.3242C33.4219 31.9805 33.4707 32.7227 33.4707 33.4453V37H32.1816ZM47.6035 34.1094V29.2754H48.9023V34.1094C48.9023 34.7734 49.0391 35.2682 49.3125 35.5938C49.5859 35.9128 49.9668 36.0723 50.4551 36.0723C50.9564 36.0723 51.3438 35.9062 51.6172 35.5742C51.8906 35.2357 52.0273 34.7474 52.0273 34.1094V29.2754H53.3164V34.1094C53.3164 35.0924 53.0755 35.8509 52.5938 36.3848C52.112 36.9121 51.3991 37.1758 50.4551 37.1758C49.5436 37.1758 48.8405 36.9186 48.3457 36.4043C47.8509 35.89 47.6035 35.125 47.6035 34.1094Z" fill="black"/>
</svg>
